<svg id="Layer_1" data-name="Layer 1" xmlns="http://www.w3.org/2000/svg" xmlns:xlink="http://www.w3.org/1999/xlink" width="116.77" height="32" viewBox="0 0 116.77 32"><defs><style>.cls-1{fill:none;}.cls-2{clip-path:url(#clip-path);}.cls-3{fill:#e35205;}</style><clipPath id="clip-path"><rect class="cls-1" width="116.77" height="32"/></clipPath></defs><g class="cls-2"><path class="cls-3" d="M41,25.56H42c.73,0,.94-.09,1.18-.44a1.45,1.45,0,0,0,.22-.87A1.13,1.13,0,0,0,42.16,23H41m.55-1.37A4.55,4.55,0,0,1,44,22a2.34,2.34,0,0,1,1.27,2.18,2.57,2.57,0,0,1-1.52,2.44,3.9,3.9,0,0,1-1.77.27H41V30H39.24V21.63Z"/></g><polyline class="cls-3" points="51.42 21.64 51.19 23.01 48.16 23.01 48.16 24.95 50.69 24.95 50.69 26.33 48.19 26.33 48.19 28.57 51.53 28.57 51.53 30.02 46.39 30.02 46.39 21.64"/><polyline class="cls-3" points="58.66 21.64 58.37 23.03 56.26 23.03 56.26 30.02 54.45 30.02 54.45 23.03 52.29 23.03 52.29 21.64"/><polyline class="cls-3" points="64.17 21.64 64.17 24.89 66.71 24.89 66.71 21.64 68.52 21.64 68.52 30.02 66.71 30.02 66.71 26.28 64.17 26.28 64.17 30.02 62.41 30.02 62.41 21.64"/><g class="cls-2"><path class="cls-3" d="M72.37,23.57a4.6,4.6,0,0,0-.45,2.29c0,1.45.26,2.35.79,2.72a1.83,1.83,0,0,0,1.05.29c1.23,0,1.75-.9,1.75-3a6.56,6.56,0,0,0-.22-1.95,1.59,1.59,0,0,0-1.55-1.06,1.54,1.54,0,0,0-1.37.74m5.19,2.22c0,1.89-.69,3.32-2,4a3.47,3.47,0,0,1-1.76.39A3.33,3.33,0,0,1,71,29a4.8,4.8,0,0,1-1-3.11,4.19,4.19,0,0,1,2-3.92,4,4,0,0,1,1.83-.41c2.35,0,3.8,1.63,3.8,4.26"/><path class="cls-3" d="M83.74,23.43a3.94,3.94,0,0,0-2.06-.64c-.73,0-1.23.4-1.23,1s.24.65,1,.84l1.07.28a2.57,2.57,0,0,1,2.24,2.5c0,1.7-1.45,2.82-3.65,2.82a6.49,6.49,0,0,1-3-.76l.66-1.31a5.23,5.23,0,0,0,2.43.67c1,0,1.55-.39,1.55-1.14,0-.55-.37-.88-1.16-1.09l-1-.25a2.74,2.74,0,0,1-1.74-1.06A2.36,2.36,0,0,1,78.46,24c0-1.54,1.3-2.6,3.17-2.6a5.41,5.41,0,0,1,3,.85"/><path class="cls-3" d="M87.92,25.56h.93c.73,0,.94-.09,1.18-.44a1.39,1.39,0,0,0,.22-.87A1.13,1.13,0,0,0,89.06,23H87.92m.55-1.37a4.55,4.55,0,0,1,2.45.41,2.34,2.34,0,0,1,1.27,2.18,2.57,2.57,0,0,1-1.52,2.44,3.9,3.9,0,0,1-1.77.27h-1V30H86.15V21.63Z"/></g><rect class="cls-3" x="93.29" y="21.64" width="1.85" height="8.39"/><polyline class="cls-3" points="102.58 21.64 102.28 23.03 100.17 23.03 100.17 30.02 98.37 30.02 98.37 23.03 96.21 23.03 96.21 21.64"/><g class="cls-2"><path class="cls-3" d="M106.4,26.63s-.29-.88-.49-1.69c-.08-.39-.35-1.48-.35-1.48s-.25,1-.42,1.62-.28,1-.47,1.55m1.91-5L109.36,30h-1.91l-.62-2h-2.59l-.62,2h-1.86l2.9-8.41Z"/></g><polyline class="cls-3" points="112.12 21.64 112.12 28.62 115.28 28.62 114.96 30.02 110.3 30.02 110.3 21.64"/><g class="cls-2"><path class="cls-3" d="M46.66,8.56a3.31,3.31,0,0,1-2,.48H42V5.32h2.64a3.31,3.31,0,0,1,2,.48,1.62,1.62,0,0,1,.58,1.38,1.6,1.6,0,0,1-.58,1.38m-4.64,3h2.9a3.45,3.45,0,0,1,2.2.58,2.16,2.16,0,0,1,.65,1.77,2.18,2.18,0,0,1-.65,1.77,3.39,3.39,0,0,1-2.2.58H42Zm7.83-.26a4.2,4.2,0,0,0-1.38-1.08,3.06,3.06,0,0,0,.94-.77A3.89,3.89,0,0,0,50.15,7a3.69,3.69,0,0,0-1.44-3.09,6.39,6.39,0,0,0-3.9-1.06H39.54a.42.42,0,0,0-.42.42V18.33a.42.42,0,0,0,.42.42H45a6.62,6.62,0,0,0,4.22-1.2,4.17,4.17,0,0,0,1.54-3.45,4.34,4.34,0,0,0-.93-2.83"/><path class="cls-3" d="M59.06,13.05a3.94,3.94,0,0,1-.85,2.65,2.71,2.71,0,0,1-2.19.95,2.22,2.22,0,0,1-1.52-.48A1.58,1.58,0,0,1,54,14.91a1.46,1.46,0,0,1,.68-1.4,6.12,6.12,0,0,1,2.94-.46m2.83-5.34a5.34,5.34,0,0,0-4-1.4,10.29,10.29,0,0,0-2,.2,13.37,13.37,0,0,0-2.07.61.41.41,0,0,0-.27.39V9.23a.43.43,0,0,0,.2.36.4.4,0,0,0,.41,0,7.14,7.14,0,0,1,1.69-.66,7.35,7.35,0,0,1,1.81-.22,3.27,3.27,0,0,1,2.14.61,1.9,1.9,0,0,1,.69,1.43H56.84a6.79,6.79,0,0,0-4.11,1.05A3.79,3.79,0,0,0,51.27,15,3.82,3.82,0,0,0,52.44,18,4.34,4.34,0,0,0,55.52,19a5.64,5.64,0,0,0,2.54-.53,4.38,4.38,0,0,0,1-.72v.54a.42.42,0,0,0,.42.42h1.88a.41.41,0,0,0,.41-.42V11.86a5.78,5.78,0,0,0-1.34-4.15"/><path class="cls-3" d="M72.45,7.66A4.1,4.1,0,0,0,69.14,6.3a4.73,4.73,0,0,0-2.31.56,4.49,4.49,0,0,0-1,.73V7a.41.41,0,0,0-.42-.41H63.55a.41.41,0,0,0-.42.41V18.33a.42.42,0,0,0,.42.42h1.89a.42.42,0,0,0,.42-.42V11.92a3.37,3.37,0,0,1,.77-2.34,2.67,2.67,0,0,1,2.09-.82,1.89,1.89,0,0,1,1.58.64,3.47,3.47,0,0,1,.54,2.15v6.78a.42.42,0,0,0,.42.42h1.88a.41.41,0,0,0,.41-.42V11.49a5.89,5.89,0,0,0-1.1-3.83"/><path class="cls-3" d="M81.38,2.16H79.89a4.35,4.35,0,0,0-3.11,1,4.12,4.12,0,0,0-1,3.06v.37H74.38A.41.41,0,0,0,74,7V8.44a.41.41,0,0,0,.41.42h1.38v9.47a.42.42,0,0,0,.42.42h1.89a.42.42,0,0,0,.42-.42V8.86H81a.42.42,0,0,0,.42-.42V7A.42.42,0,0,0,81,6.58H78.49V6c0-.77.17-1.06.28-1.17a1.55,1.55,0,0,1,1.1-.27h1.51a.42.42,0,0,0,.42-.42V2.58a.42.42,0,0,0-.42-.42"/><path class="cls-3" d="M84.73,6.58H82.85a.42.42,0,0,0-.42.42V18.33a.42.42,0,0,0,.42.42h1.88a.41.41,0,0,0,.41-.42V7a.41.41,0,0,0-.41-.42"/><path class="cls-3" d="M84.73,2.43H82.85a.42.42,0,0,0-.42.42V4.78a.41.41,0,0,0,.42.41h1.88a.41.41,0,0,0,.41-.41V2.85a.41.41,0,0,0-.41-.42"/><path class="cls-3" d="M89.24,11.24a3,3,0,0,1,.89-1.75,3.13,3.13,0,0,1,2.24-.77,2.47,2.47,0,0,1,1.93.78A2.89,2.89,0,0,1,95,11.24m1.28-3.33a5.14,5.14,0,0,0-4-1.6A5.75,5.75,0,0,0,88,8.07a6.69,6.69,0,0,0-1.63,4.71A6.14,6.14,0,0,0,88,17.34,6.36,6.36,0,0,0,92.68,19a11.13,11.13,0,0,0,2.24-.23,11.88,11.88,0,0,0,2.15-.67.42.42,0,0,0,.26-.39V16a.42.42,0,0,0-.2-.35.4.4,0,0,0-.41,0,9.61,9.61,0,0,1-1.93.75,7.83,7.83,0,0,1-2,.25,3.66,3.66,0,0,1-2.63-.89,3.65,3.65,0,0,1-1-2.21h8.19a.42.42,0,0,0,.42-.42V12.2a6.13,6.13,0,0,0-1.46-4.29"/><path class="cls-3" d="M101.17,2.16H99.28a.41.41,0,0,0-.41.42V18.33a.41.41,0,0,0,.41.42h1.89a.41.41,0,0,0,.41-.42V2.58a.41.41,0,0,0-.41-.42"/><path class="cls-3" d="M111,12.67a5,5,0,0,1-.78,3,2.53,2.53,0,0,1-4,0,5,5,0,0,1-.77-3,5.05,5.05,0,0,1,.77-3,2.54,2.54,0,0,1,4,0,5,5,0,0,1,.78,3m3.83,4.42a.4.4,0,0,0-.22-.27c-.79-.42-.9-.65-.9-1.33v-.21s0,0,0-.07V2.58a.42.42,0,0,0-.42-.42h-1.88a.41.41,0,0,0-.41.42V7.5a4,4,0,0,0-.89-.65,4.91,4.91,0,0,0-2.37-.54,4.53,4.53,0,0,0-3.7,1.79,7.14,7.14,0,0,0-1.4,4.57,7.12,7.12,0,0,0,1.4,4.57,4.51,4.51,0,0,0,3.7,1.8,4.91,4.91,0,0,0,2.37-.54,3.93,3.93,0,0,0,1.23-1,4.2,4.2,0,0,0,1.85,1.66.53.53,0,0,0,.2.05.43.43,0,0,0,.37-.2l1-1.53a.43.43,0,0,0,.06-.35"/><path class="cls-3" d="M31.18,8.1H24.51a.83.83,0,0,1-.83-.83V.84A.85.85,0,0,0,22.84,0H9.16a.83.83,0,0,0-.84.82V7.27a.83.83,0,0,1-.83.82H.84A.84.84,0,0,0,0,8.93V21.25c2.14-.79,6.36-1.26,7.82-6.11a25.17,25.17,0,0,1,.92-3,.08.08,0,0,1,0-.05h0a4.73,4.73,0,0,1,.49-.87,5.79,5.79,0,0,1,.62-.69c.36-.34.6-.47.63-.65.34-1.58,2.5-2.93,3.05-3.81.17-.29.36-.39.52-.33a.34.34,0,0,1,.12.06h0a1.28,1.28,0,0,1,.31.74v0a5.67,5.67,0,0,1-.43,2.78h.11a6.12,6.12,0,0,1,3,.41l.08,0,0,0c.92.4,1.37,1.61,2.06,1.68,2.7.24,5.22,0,5.37.89a.15.15,0,0,1,0,.07,2.11,2.11,0,0,1-.18,1.27h0a.13.13,0,0,1,0,.06,1.55,1.55,0,0,1-.11.19,6.44,6.44,0,0,1-.2,1.79,2.47,2.47,0,0,1-1.44,1.76c-2.78,1-3.93.31-5.61,1.43-1.39.92-2,3.21-2.11,3.72-.3,2.15,1,4.43,1,7.13A8.75,8.75,0,0,1,16,32h6.89a.84.84,0,0,0,.84-.84V24.29a.83.83,0,0,1,.83-.83h6.65a.8.8,0,0,0,.8-.87V8.9a.77.77,0,0,0-.78-.8"/><path class="cls-3" d="M15.82,15.68l-.09-.06a6.18,6.18,0,0,0-.74-.18h-.1l-.09,0h0l-.08,0h0l0,0-.16-.16-.1-.09-.06,0-.15-.1h0l-.17-.1a3.17,3.17,0,0,0-2.29-.06c-.36-.06-.7-1.52-1.12-1.46-.26.08-.22.39-.24.56-.18-.17-.43-.36-.63-.52s-.36-.06-.45.08c-.52,1.2,0,3.51-.2,3.81S9.16,19,8.6,19.8a3.4,3.4,0,0,1-.25.35c-.28.36-.61.88-2.17,1a4.28,4.28,0,0,1-.52,0c-.88,0-3.91.07-5.49,1.95h0a.71.71,0,0,0,.52.34H7.49a.82.82,0,0,1,.82.82v1.24h0v5.62a.84.84,0,0,0,.84.84h2.91a1.71,1.71,0,0,0,.11-.14v0A9.56,9.56,0,0,0,14,26.55c0-.2,0-.42,0-.64v-.1c0-.19,0-.39,0-.59v-.31c0-.15,0-.31,0-.47s0-.56-.05-.86c-.06-1.25-.83-3.49.19-4.74l.09-.1,0,0,.05,0,.07,0,0,0,.09,0h0c.46-.29,1-.26,1.37-1a2,2,0,0,0-.15-1.85"/><path class="cls-3" d="M115.46,3.61h.12c.14,0,.26,0,.26-.16s-.08-.17-.24-.17h-.14m0,.94h-.25V3.13a2.12,2.12,0,0,1,.42,0,.61.61,0,0,1,.38.09.28.28,0,0,1,.12.23.29.29,0,0,1-.23.27h0c.11,0,.16.12.19.27a1.31,1.31,0,0,0,.08.27h-.27a.88.88,0,0,1-.08-.27.21.21,0,0,0-.23-.17h-.13Zm-.68-.57a.86.86,0,0,0,.87.88.84.84,0,0,0,.84-.87.86.86,0,1,0-1.71,0m2,0a1.14,1.14,0,1,1-1.13-1.11,1.12,1.12,0,0,1,1.13,1.11"/></g></svg>