<svg id="Layer_1" data-name="Layer 1" xmlns="http://www.w3.org/2000/svg" xmlns:xlink="http://www.w3.org/1999/xlink" width="116.78" height="32" viewBox="0 0 116.78 32"><defs><style>.cls-1{fill:none;}.cls-2{clip-path:url(#clip-path);}.cls-3{fill:#f0f0f0;}</style><clipPath id="clip-path"><rect class="cls-1" width="116.77" height="32"/></clipPath></defs><g class="cls-2"><path class="cls-3" d="M41,25.56h1c.73,0,.94-.09,1.18-.44a1.47,1.47,0,0,0,.22-.87,1.13,1.13,0,0,0-1-1.25h0a1,1,0,0,0-.24,0H41m.55-1.37A4.49,4.49,0,0,1,44,22a2.35,2.35,0,0,1,1.27,2.18,2.56,2.56,0,0,1-1.52,2.44,3.83,3.83,0,0,1-1.77.27H41V30H39.24V21.63Z"/></g><polyline class="cls-3" points="51.42 21.64 51.19 23.01 48.16 23.01 48.16 24.95 50.69 24.95 50.69 26.33 48.19 26.33 48.19 28.57 51.53 28.57 51.53 30.02 46.39 30.02 46.39 21.64"/><polyline class="cls-3" points="58.66 21.64 58.37 23.03 56.26 23.03 56.26 30.02 54.45 30.02 54.45 23.03 52.29 23.03 52.29 21.64"/><polyline class="cls-3" points="64.17 21.64 64.17 24.89 66.71 24.89 66.71 21.64 68.52 21.64 68.52 30.02 66.71 30.02 66.71 26.28 64.17 26.28 64.17 30.02 62.41 30.02 62.41 21.64"/><g class="cls-2"><path class="cls-3" d="M72.37,23.57a4.64,4.64,0,0,0-.45,2.29c0,1.45.26,2.35.79,2.72a1.85,1.85,0,0,0,1.05.29c1.23,0,1.75-.9,1.75-3a6.75,6.75,0,0,0-.22-1.95,1.6,1.6,0,0,0-1.55-1.06,1.53,1.53,0,0,0-1.37.74m5.19,2.22a4.19,4.19,0,0,1-2,4,3.47,3.47,0,0,1-1.76.39A3.35,3.35,0,0,1,71,29a4.79,4.79,0,0,1-1-3.11A4.19,4.19,0,0,1,72,22a4,4,0,0,1,1.83-.41c2.35,0,3.8,1.63,3.8,4.26"/><path class="cls-3" d="M83.74,23.43a4,4,0,0,0-2.06-.64c-.73,0-1.23.4-1.23,1s.24.65,1,.84l1.07.28a2.57,2.57,0,0,1,2.24,2.5c0,1.7-1.45,2.82-3.65,2.82a6.51,6.51,0,0,1-3-.76l.66-1.31a5.18,5.18,0,0,0,2.43.67c1,0,1.55-.39,1.55-1.14,0-.55-.37-.88-1.16-1.09l-1-.25a2.78,2.78,0,0,1-1.74-1.06A2.36,2.36,0,0,1,78.46,24c0-1.54,1.3-2.6,3.17-2.6a5.39,5.39,0,0,1,3,.85"/><path class="cls-3" d="M87.92,25.56h.93c.73,0,.94-.09,1.18-.44a1.4,1.4,0,0,0,.22-.87,1.13,1.13,0,0,0-1-1.25H87.92m.55-1.37a4.59,4.59,0,0,1,2.45.41,2.35,2.35,0,0,1,1.27,2.18,2.56,2.56,0,0,1-1.52,2.44,3.83,3.83,0,0,1-1.77.27h-1V30H86.15V21.63Z"/></g><rect class="cls-3" x="93.29" y="21.64" width="1.85" height="8.39"/><polyline class="cls-3" points="102.58 21.64 102.28 23.03 100.17 23.03 100.17 30.02 98.37 30.02 98.37 23.03 96.21 23.03 96.21 21.64"/><g class="cls-2"><path class="cls-3" d="M106.4,26.63s-.29-.88-.49-1.69c-.08-.39-.35-1.48-.35-1.48s-.25,1-.42,1.62-.28,1-.47,1.55m1.91-5L109.36,30h-1.91l-.62-2h-2.59l-.62,2h-1.86l2.9-8.41Z"/></g><polyline class="cls-3" points="112.12 21.64 112.12 28.62 115.28 28.62 114.96 30.02 110.3 30.02 110.3 21.64"/><g class="cls-2"><path class="cls-3" d="M46.66,8.56a3.28,3.28,0,0,1-2,.48H42V5.32h2.64a3.28,3.28,0,0,1,2,.48,1.62,1.62,0,0,1,.58,1.38,1.58,1.58,0,0,1-.58,1.38m-4.64,3h2.9a3.44,3.44,0,0,1,2.2.58,2.13,2.13,0,0,1,.65,1.77,2.2,2.2,0,0,1-.65,1.77,3.36,3.36,0,0,1-2.2.58H42Zm7.83-.26a4.27,4.27,0,0,0-1.38-1.08,3,3,0,0,0,.94-.77A3.92,3.92,0,0,0,50.15,7a3.69,3.69,0,0,0-1.44-3.09,6.35,6.35,0,0,0-3.9-1.06H39.54a.42.42,0,0,0-.42.42V18.33a.42.42,0,0,0,.42.42H45a6.62,6.62,0,0,0,4.22-1.2,4.18,4.18,0,0,0,1.54-3.45,4.4,4.4,0,0,0-.93-2.83"/><path class="cls-3" d="M59.06,13.05a3.91,3.91,0,0,1-.85,2.65,2.7,2.7,0,0,1-2.19.95,2.25,2.25,0,0,1-1.52-.48,1.58,1.58,0,0,1-.5-1.26,1.46,1.46,0,0,1,.68-1.4,6.18,6.18,0,0,1,2.94-.46m2.83-5.34a5.31,5.31,0,0,0-4-1.4,10.36,10.36,0,0,0-2,.2,13.31,13.31,0,0,0-2.07.61.42.42,0,0,0-.27.39V9.23a.43.43,0,0,0,.2.36.38.38,0,0,0,.41,0,7.24,7.24,0,0,1,1.69-.66,7.35,7.35,0,0,1,1.81-.22,3.28,3.28,0,0,1,2.14.61,1.89,1.89,0,0,1,.69,1.43H56.84a6.77,6.77,0,0,0-4.11,1.05A3.79,3.79,0,0,0,51.27,15a3.84,3.84,0,0,0,1.17,3,4.31,4.31,0,0,0,3.08,1,5.68,5.68,0,0,0,2.54-.53,4.17,4.17,0,0,0,1-.72v.54a.42.42,0,0,0,.42.42h1.88a.41.41,0,0,0,.41-.41h0V11.86a5.81,5.81,0,0,0-1.34-4.15"/><path class="cls-3" d="M72.45,7.66A4.09,4.09,0,0,0,69.14,6.3a4.75,4.75,0,0,0-2.31.56,4.5,4.5,0,0,0-1,.73V7a.41.41,0,0,0-.41-.41H63.55a.41.41,0,0,0-.42.4h0V18.33a.42.42,0,0,0,.42.42h1.89a.42.42,0,0,0,.42-.42V11.92a3.36,3.36,0,0,1,.77-2.34,2.65,2.65,0,0,1,2.09-.82,1.9,1.9,0,0,1,1.58.64,3.47,3.47,0,0,1,.54,2.15v6.78a.42.42,0,0,0,.42.42h1.88a.41.41,0,0,0,.41-.41h0V11.49a5.88,5.88,0,0,0-1.1-3.83"/><path class="cls-3" d="M81.38,2.16H79.89a4.39,4.39,0,0,0-3.11,1,4.12,4.12,0,0,0-1,3.06v.37h-1.4A.41.41,0,0,0,74,7V8.44a.41.41,0,0,0,.4.42h1.39v9.47a.42.42,0,0,0,.42.42H78.1a.42.42,0,0,0,.42-.42V8.86H81a.42.42,0,0,0,.42-.42V7A.42.42,0,0,0,81,6.58H78.49V6c0-.77.17-1.06.28-1.17a1.54,1.54,0,0,1,1.1-.27h1.51a.42.42,0,0,0,.42-.42V2.58a.42.42,0,0,0-.42-.42"/><path class="cls-3" d="M84.73,6.58H82.85a.42.42,0,0,0-.42.42V18.33a.42.42,0,0,0,.42.42h1.88a.41.41,0,0,0,.41-.41h0V7a.41.41,0,0,0-.4-.42h0"/><path class="cls-3" d="M84.73,2.43H82.85a.42.42,0,0,0-.42.42V4.78a.41.41,0,0,0,.41.41h1.89a.41.41,0,0,0,.41-.41h0V2.85a.41.41,0,0,0-.4-.42h0"/><path class="cls-3" d="M89.24,11.24a3,3,0,0,1,.89-1.75,3.12,3.12,0,0,1,2.24-.77,2.47,2.47,0,0,1,1.93.78,2.88,2.88,0,0,1,.7,1.74m1.28-3.33a5.14,5.14,0,0,0-4-1.6A5.75,5.75,0,0,0,88,8.07a6.71,6.71,0,0,0-1.63,4.71A6.09,6.09,0,0,0,88,17.34,6.39,6.39,0,0,0,92.68,19a11.28,11.28,0,0,0,2.24-.23,11.41,11.41,0,0,0,2.15-.67.42.42,0,0,0,.26-.39V16a.42.42,0,0,0-.2-.35.38.38,0,0,0-.41,0,9.42,9.42,0,0,1-1.93.75,7.94,7.94,0,0,1-2,.25,3.67,3.67,0,0,1-2.63-.89,3.61,3.61,0,0,1-1-2.21h8.19a.42.42,0,0,0,.42-.42V12.2a6.12,6.12,0,0,0-1.46-4.29"/><path class="cls-3" d="M101.17,2.16H99.28a.41.41,0,0,0-.41.41h0V18.33a.41.41,0,0,0,.4.42h1.9a.41.41,0,0,0,.41-.41h0V2.58a.41.41,0,0,0-.4-.42h0"/><path class="cls-3" d="M111,12.67a5,5,0,0,1-.78,3,2.53,2.53,0,0,1-3.55.45h0a2.4,2.4,0,0,1-.45-.45,5,5,0,0,1-.77-3,5.11,5.11,0,0,1,.77-3,2.54,2.54,0,0,1,3.57-.43h0a2.91,2.91,0,0,1,.43.43,5,5,0,0,1,.78,3m3.83,4.42a.4.4,0,0,0-.22-.27c-.79-.42-.9-.65-.9-1.33V2.58a.42.42,0,0,0-.42-.42h-1.88a.41.41,0,0,0-.41.41h0V7.5a3.57,3.57,0,0,0-.89-.65,4.88,4.88,0,0,0-2.37-.54A4.56,4.56,0,0,0,104,8.1a7.14,7.14,0,0,0-1.4,4.57,7.14,7.14,0,0,0,1.4,4.57,4.51,4.51,0,0,0,3.7,1.8,4.88,4.88,0,0,0,2.37-.54,4.1,4.1,0,0,0,1.23-1,4.13,4.13,0,0,0,1.85,1.66.46.46,0,0,0,.2.05.43.43,0,0,0,.37-.2l1-1.53a.43.43,0,0,0,.06-.35"/><path class="cls-3" d="M31.18,8.1H24.51a.83.83,0,0,1-.83-.83V.84A.86.86,0,0,0,22.84,0H9.16a.83.83,0,0,0-.84.82h0V7.27a.85.85,0,0,1-.83.82H.84A.86.86,0,0,0,0,8.93H0V21.25c2.14-.79,6.36-1.26,7.82-6.11a24.16,24.16,0,0,1,.92-3m0-.05h0a4.64,4.64,0,0,1,.49-.87,5.86,5.86,0,0,1,.62-.69c.36-.34.6-.47.63-.65.34-1.58,2.5-2.93,3-3.81.17-.29.36-.39.52-.33a.34.34,0,0,1,.12.06h0a1.29,1.29,0,0,1,.31.74h0A5.76,5.76,0,0,1,14,9.32h.11a6,6,0,0,1,3,.41h.08c.92.4,1.37,1.61,2.06,1.68,2.7.24,5.22,0,5.37.89a.09.09,0,0,1,0,.07,2.13,2.13,0,0,1-.18,1.27h0v.06a1.18,1.18,0,0,1-.11.19,6.35,6.35,0,0,1-.2,1.79,2.47,2.47,0,0,1-1.44,1.76c-2.78,1-3.93.31-5.61,1.43-1.39.92-2,3.21-2.11,3.72-.3,2.15,1,4.43,1,7.13A8.7,8.7,0,0,1,16,32h6.89a.86.86,0,0,0,.84-.84h0V24.29a.83.83,0,0,1,.83-.83h6.65a.8.8,0,0,0,.8-.8V8.9a.77.77,0,0,0-.74-.8h0"/><path class="cls-3" d="M15.82,15.68l-.09-.06a4.7,4.7,0,0,0-.74-.18h-.27l-.16-.16-.1-.09H14.4l-.15-.1h0l-.17-.1a3.18,3.18,0,0,0-2.29-.06c-.36-.06-.7-1.52-1.12-1.46-.26.08-.22.39-.24.56-.18-.17-.43-.36-.63-.52a.28.28,0,0,0-.4,0,.35.35,0,0,0-.05.08c-.52,1.2,0,3.51-.2,3.81s0,1.6-.55,2.4c-.08.12-.16.24-.25.35-.28.36-.61.88-2.17,1a4.51,4.51,0,0,1-.52,0c-.88,0-3.91.07-5.49,2h0a.7.7,0,0,0,.52.34h6.8a.82.82,0,0,1,.82.82V25.5h0v5.62a.86.86,0,0,0,.84.84h2.91a.76.76,0,0,0,.11-.14h0A9.55,9.55,0,0,0,14,26.55V24.44a6.2,6.2,0,0,0-.05-.86c-.06-1.25-.83-3.49.19-4.74l.09-.1h.21c.46-.29,1-.26,1.37-1a2,2,0,0,0-.15-1.85"/><path class="cls-3" d="M115.46,3.61h.12c.14,0,.26,0,.26-.16s-.08-.17-.24-.17h-.14m0,.94h-.25V3.13h.42a.63.63,0,0,1,.38.09.27.27,0,0,1,.12.23.3.3,0,0,1-.23.27h0c.11,0,.16.12.19.27a1.38,1.38,0,0,0,.08.27h-.27a.92.92,0,0,1-.08-.27.21.21,0,0,0-.23-.17h-.13Zm-.68-.57a.86.86,0,0,0,.84.88h0a.86.86,0,0,0,.84-.84h0a.86.86,0,1,0-1.71-.19h0a.61.61,0,0,0,0,.19m2,0a1.14,1.14,0,1,1-1.17-1.11h0a1.12,1.12,0,0,1,1.13,1.11h0"/></g></svg>